<?xml version="1.0" encoding="UTF-8"?>
<svg id="Layer_2" xmlns="http://www.w3.org/2000/svg" viewBox="0 0 315 315">
  <g id="Layer_1-2" data-name="Layer_1">
    <g>
      <path d="M258.52,171h-105.52v-18h124.38c-.26-6.13-.99-12.14-2.13-18h-122.25c-9.94,0-18,8.06-18,18h0v36h119.6c-13.09,41.58-52.01,71.81-97.85,71.81-7.46,0-14.74-.81-21.75-2.33v18.53c7.06,1.29,14.32,1.99,21.75,1.99,55.96,0,103.14-38.26,116.78-90,1.54-5.84,2.65-11.85,3.3-18h-18.31Z"/>
      <path d="M270.24,117c-2.28-6.26-5.07-12.27-8.31-18-20.75-36.68-60.12-61.5-105.18-61.5-13.92,0-27.3,2.38-39.75,6.73-6.25,2.18-12.27,4.86-18,8v46.77h-47.43c-3.24,5.73-6.03,11.74-8.31,18h55.74v147.27c5.73,3.14,11.75,5.82,18,8V117h153.24ZM117,99v-35.29c12.23-5.16,25.66-8.02,39.75-8.02,34.5,0,65.07,17.12,83.67,43.31h-123.42Z"/>
      <path d="M56.85,135h-18.59c-1.47,7.53-2.25,15.3-2.25,23.25,0,37.92,17.58,71.79,45,93.95v-24.89c-16.64-18.24-26.81-42.48-26.81-69.06,0-7.99.92-15.78,2.66-23.25Z"/>
      <path d="M157.5,0C70.65,0,0,70.65,0,157.5s70.65,157.5,157.5,157.5,157.5-70.65,157.5-157.5S244.35,0,157.5,0ZM157.5,297c-76.92,0-139.5-62.58-139.5-139.5S80.58,18,157.5,18s139.5,62.58,139.5,139.5-62.58,139.5-139.5,139.5Z"/>
    </g>
  </g>
</svg>